<?xml version="1.0" encoding="UTF-8"?>
<svg id="Layer_1" data-name="Layer 1" xmlns="http://www.w3.org/2000/svg" viewBox="0 0 2835.65 5670.29">
  <defs>
    <style>
      .cls-1 {
        fill: #e8b7d5;
        stroke: #231f20;
        stroke-miterlimit: 10;
      }

      .cls-2 {
        fill: #6e96ce;
      }

      .cls-2, .cls-3, .cls-4, .cls-5, .cls-6, .cls-7 {
        stroke-width: 0px;
      }

      .cls-3 {
        fill: #533a20;
      }

      .cls-4 {
        fill: #3a2415;
      }

      .cls-5 {
        fill: #dfb0cb;
      }

      .cls-6 {
        fill: #fff;
      }

      .cls-7 {
        fill: #e6b6d4;
      }
    </style>
  </defs>
  <rect class="cls-1" x=".5" y=".5" width="2834.65" height="5669.29"/>
  <polygon class="cls-4" points="710.46 916.07 665.34 1254.48 620.22 1615.46 570.59 1998.99 556.81 2263.86 584.36 2509.45 618.79 2658.64 726.66 2856.04 839.13 2984.57 901.1 3069.5 967.67 3159.01 1020.46 3255.41 1068.66 3377.06 1103.09 3484.94 1103.09 3602 1084.73 3702.99 1050.3 3831.52 1008.98 3854.48 986.03 3824.64 995.21 3797.09 965.37 3820.05 960.78 3854.48 965.37 3895.79 969.96 3943.99 963.08 4015.15 953.9 4084 974.55 4205.65 999.8 4263.03 1031.93 4279.1 1091.61 4269.92 1135.22 4244.67 1176.54 4207.95 1206.37 4134.5 1238.51 4079.41 1263.76 4024.33 1302.78 3992.19 1325.73 3992.19 1325.73 4026.62 1302.78 4084 1286.71 4118.43 1275.23 4175.81 1272.94 4224.01 1272.94 4279.1 1293.59 4320.42 1316.55 4343.37 1341.8 4359.43 1369.34 4345.66 1369.34 4281.4 1380.81 4221.72 1410.65 4173.52 1435.9 4116.14 1454.26 4047.28 1472.63 3964.65 1461.15 3900.38 1458.85 3859.07 1451.97 3769.55 1490.99 3698.4 1566.73 3611.18 1621.82 3556.09 1722.81 3528.55 1878.89 3540.03 1986.77 3599.7 2073.99 3698.4 2122.19 3790.21 2147.43 3895.79 2147.43 3957.76 2117.6 4061.05 2073.99 4139.09 2023.49 4175.81 1961.52 4212.54 1878.89 4240.08 1784.78 4265.33 1713.63 4297.46 1626.41 4329.6 1575.91 4359.43 1557.55 4393.86 1548.37 4423.7 1511.64 4467.31 1520.83 4490.27 1552.96 4490.27 1573.62 4490.27 1562.14 4545.35 1546.07 4605.03 1557.55 4641.75 1603.46 4621.1 1619.52 4650.93 1675.36 4733.56 1695.27 4701.43 1675.36 4575.19 1675.36 4517.81 1720.51 4559.12 1775.6 4627.98 1816.92 4694.54 1855.93 4754.22 1883.48 4745.04 1890.36 4671.59 1890.36 4549.94 1860.53 4483.38 1796.26 4377.8 1777.9 4354.84 1901.84 4334.19 2000.54 4315.82 2080.87 4258.44 2147.43 4201.06 2191.04 4141.38 2218.59 4070.23 2230.06 4019.74 2241.54 3934.81 2241.54 3829.23 2193.34 3650.2 2149.73 3588.23 2103.82 3540.03 1991.36 3450.51 1885.77 3388.54 1853.64 3317.38 1915.61 3248.53 2076.28 3092.45 2163.5 2899.65 2186.45 2677 2241.54 2401.57 2257.61 1797.92 2227.77 1334.27 2197.93 1022.12 2168.09 1015.23 2154.32 1063.43 2145.14 1210.33 2145.14 1481.17 2087.76 1786.44 2016.6 1940.22 1952.34 2059.58 1874.3 2266.15 1837.57 2433.71 1796.26 2612.74 1741.17 2789.12 1628.7 2966.21 1578.21 3048.84 1532.3 3163.6 1458.85 3184.26 1391.2 3172.78 1334.91 3138.35 1289 3062.61 1229.33 2973.09 1167.36 2771.11 1084.73 2413.05 1006.69 2071.05 935.53 1703.81 820.77 1361.82 756.5 1033.59 742.73 928.01 710.46 916.07"/>
  <polygon class="cls-2" points="1236.88 4.58 1236.88 538.29 1419.25 366.84 1613.11 538.29 1613.11 4.58 1236.88 4.58"/>
  <path class="cls-6" d="M1418.67,342.92c-23.95.05-43.28,19.96-42.81,43.31.46,22.61,19.37,41.39,42.56,41.55l.25-84.86Z"/>
  <path class="cls-3" d="M1418.67,427.78c23.95-.05,43.28-19.96,42.81-43.31-.46-22.61-19.37-41.39-42.56-41.55l-.25,84.86Z"/>
  <polygon class="cls-7" points="1613.11 4.61 1556.21 72.25 1514.15 32.13 1421.79 121.33 1323.65 4.58 1613.11 4.61"/>
  <polygon class="cls-7" points="1555.42 4.58 1512.5 84.35 1422.61 38.17 1321.59 101.83 1284.48 176.05 1235.83 68.71 1235.75 4.58 1555.42 4.58"/>
  <polygon class="cls-5" points="1300.81 143.39 1284.48 176.05 1269.68 143.39 1269.68 4.58 1300.81 4.58 1300.81 143.39"/>
  <polygon class="cls-7" points="1421.75 159.77 1423.64 153.96 1429.89 153.96 1424.98 150.28 1426.81 144.38 1421.75 148.03 1416.74 144.38 1418.66 150.26 1413.59 153.89 1419.84 153.94 1421.75 159.77"/>
  <polygon class="cls-7" points="1512.65 122.76 1514.53 116.95 1520.78 116.95 1515.88 113.27 1517.7 107.36 1512.65 111.02 1507.63 107.36 1509.56 113.24 1504.49 116.88 1510.74 116.92 1512.65 122.76"/>
  <polygon class="cls-7" points="1556.22 110.68 1558.1 104.87 1564.35 104.87 1559.44 101.19 1561.27 95.29 1556.22 98.95 1551.2 95.29 1553.12 101.17 1548.05 104.8 1554.3 104.85 1556.22 110.68"/>
  <polygon class="cls-7" points="1284.5 214.48 1286.39 208.67 1292.64 208.67 1287.73 204.99 1289.56 199.09 1284.5 202.75 1279.49 199.09 1281.41 204.97 1276.34 208.6 1282.59 208.65 1284.5 214.48"/>
</svg>